<svg width="20" height="20" viewBox="0 0 20 20" fill="none" xmlns="http://www.w3.org/2000/svg">
<g opacity="0.5" clip-path="url(#clip0_294_3093)">
<g opacity="0.5">
<path d="M10 18.3333C8.09726 18.3333 6.5106 17.6806 5.24004 16.375C3.96949 15.0694 3.33393 13.4444 3.33337 11.5C3.33337 10.1944 3.8231 8.77777 4.80254 7.25C5.78199 5.72222 7.26449 4.07639 9.25004 2.3125C9.45837 2.11805 9.70504 2.0175 9.99004 2.01083C10.275 2.00416 10.5214 2.09777 10.7292 2.29166C10.9653 2.5 11.1912 2.70833 11.4067 2.91666C11.6223 3.125 11.8339 3.32639 12.0417 3.52083C11.5556 4.07639 11.0939 4.73277 10.6567 5.49C10.2195 6.24722 10.0006 7.00055 10 7.75C10 9.06944 10.4481 10.1911 11.3442 11.115C12.2403 12.0389 13.32 12.5006 14.5834 12.5C14.9445 12.5 15.2953 12.4619 15.6359 12.3858C15.9764 12.3097 16.3131 12.1811 16.6459 12C16.5348 13.8194 15.8542 15.33 14.6042 16.5317C13.3542 17.7333 11.8195 18.3339 10 18.3333ZM12.5 9.91666C11.9445 9.30555 11.6667 8.58333 11.6667 7.75C11.6667 7.22222 11.8787 6.61111 12.3025 5.91666C12.7264 5.22222 13.327 4.50694 14.1042 3.77083C14.2431 3.64583 14.4028 3.58333 14.5834 3.58333C14.7639 3.58333 14.9237 3.64583 15.0625 3.77083C15.882 4.53472 16.4931 5.24666 16.8959 5.90666C17.2987 6.56666 17.5 7.18111 17.5 7.75C17.5 8.58333 17.2223 9.30555 16.6667 9.91666C16.1112 10.5278 15.4167 10.8333 14.5834 10.8333C13.75 10.8333 13.0556 10.5278 12.5 9.91666ZM10.2292 15.8333C10.3959 15.8194 10.5384 15.7533 10.6567 15.635C10.775 15.5167 10.8339 15.3744 10.8334 15.2083C10.8334 15.0139 10.7709 14.8578 10.6459 14.74C10.5209 14.6222 10.3612 14.57 10.1667 14.5833C9.59726 14.625 8.9931 14.4689 8.35421 14.115C7.71532 13.7611 7.31254 13.1186 7.14587 12.1875C7.1181 12.0347 7.04532 11.9097 6.92754 11.8125C6.80976 11.7153 6.67421 11.6667 6.52087 11.6667C6.32643 11.6667 6.16671 11.7397 6.04171 11.8858C5.91671 12.0319 5.87504 12.2019 5.91671 12.3958C6.15282 13.6597 6.70837 14.5625 7.58337 15.1042C8.45837 15.6458 9.34032 15.8889 10.2292 15.8333Z" fill="#3729AC"/>
</g>
</g>
<defs>
<clipPath id="clip0_294_3093">
<rect width="20" height="20" fill="white"/>
</clipPath>
</defs>
</svg>
