<svg width="40" height="40" viewBox="0 0 40 40" fill="none" xmlns="http://www.w3.org/2000/svg">
<g clip-path="url(#clip0_23_93)">
<rect width="40" height="40" rx="12" fill="#FEF3C6"/>
<path d="M10.9625 29C10.7839 29 10.6215 28.9543 10.4754 28.863C10.3292 28.7716 10.2156 28.6506 10.1344 28.5C10.0532 28.3493 10.0087 28.1866 10.0009 28.012C9.99308 27.8373 10.0376 27.6666 10.1344 27.5L19.147 11.5C19.2444 11.3333 19.3704 11.2083 19.525 11.125C19.6796 11.0417 19.8378 11 19.9995 11C20.1613 11 20.3197 11.0417 20.475 11.125C20.6302 11.2083 20.7559 11.3333 20.8521 11.5L29.8647 27.5C29.9621 27.6666 30.0069 27.8376 29.9991 28.013C29.9913 28.1883 29.9465 28.3506 29.8647 28.5C29.7828 28.6493 29.6692 28.7703 29.5237 28.863C29.3782 28.9556 29.2158 29.0013 29.0365 29H10.9625ZM20.6942 25.713C20.8806 25.521 20.9739 25.2833 20.9739 25C20.9739 24.7166 20.8803 24.4793 20.6932 24.288C20.5062 24.0966 20.2749 24.0006 19.9995 24C19.7241 23.9993 19.4929 24.0953 19.3058 24.288C19.1187 24.4806 19.0252 24.718 19.0252 25C19.0252 25.282 19.1187 25.5196 19.3058 25.713C19.4929 25.9063 19.7241 26.002 19.9995 26C20.2749 25.998 20.5065 25.903 20.6942 25.713ZM20.6942 22.712C20.8806 22.5206 20.9739 22.2833 20.9739 22V19C20.9739 18.7167 20.8803 18.4793 20.6932 18.288C20.5062 18.0967 20.2749 18.0007 19.9995 18C19.7241 17.9993 19.4929 18.0953 19.3058 18.288C19.1187 18.4807 19.0252 18.718 19.0252 19V22C19.0252 22.2833 19.1187 22.521 19.3058 22.713C19.4929 22.905 19.7241 23.0006 19.9995 23C20.2749 22.9993 20.5065 22.9033 20.6942 22.712Z" fill="#FFB900"/>
</g>
<defs>
<clipPath id="clip0_23_93">
<rect width="40" height="40" fill="white"/>
</clipPath>
</defs>
</svg>
